# xmcd
#
# Track frame offsets: 
#        150
#        10048
#        22694
#        30906
#        42919
#        52941
#        65248
#        76108
#        86251
#        97594
#        107530
#        115807
#        124150
#        132178
#        143924
#        154714
#        165164
#        177172
#        186567
#        199206
#
# Disc length: 2870 seconds
#
# Revision: 1
# Processed by: cddbd v1.5.2PL0 Copyright (c) Steve Scherf et al.
# Submitted via: ExactAudioCopy v0.99pb4
#
DISCID=ea0b3414
DTITLE=Johnny Cash - Real Gold ( Disk 1 )
DYEAR=1900
DGENRE=Country
TTITLE0=Ballad Of A Teenage Queen
TTITLE1=Folsom Prison Blues
TTITLE2=Guess Things Happen That Way
TTITLE3=You're The Nearest Thing To Heaven
TTITLE4=Get Rhythm
TTITLE5=Next In Line
TTITLE6=I Heard That Lonesome Whistle Blow
TTITLE7=Straight A's In Love
TTITLE8=Big River
TTITLE9=Hey Porter
TTITLE10=Wreck Of The Old '97
TTITLE11=Country Boy
TTITLE12=Sugartime
TTITLE13=Port Of Lonely Hearts
TTITLE14=Train Of Love
TTITLE15=If I Were A Carpenter
TTITLE16=Goodnight Irene
TTITLE17=New Mexico
TTITLE18=Ring Of Fire
TTITLE19=A Boy Named Sue
EXTD=
EXTT0=
EXTT1=
EXTT2=
EXTT3=
EXTT4=
EXTT5=
EXTT6=
EXTT7=
EXTT8=
EXTT9=
EXTT10=
EXTT11=
EXTT12=
EXTT13=
EXTT14=
EXTT15=
EXTT16=
EXTT17=
EXTT18=
EXTT19=
PLAYORDER=
